# xmcd CD database file
#
# Track frame offsets:
#	150
#	13537
#	26786
#	48277
#	61743
#	77492
#	96052
#	109579
#	130603
#	144350
#	161067
#
# Disc length: 2360 seconds
#
# Revision: 0
# Processed by: cddbd v1.5.2PL0 Copyright (c) Steve Scherf et al.
# Submitted via: CDex 1.70beta2
#
DISCID=7d09360b
DTITLE=Bente and The Chaingang - Join My World
DYEAR=2007
DGENRE=Country
TTITLE0=Join My World
TTITLE1=16 Dollars
TTITLE2=Downtown
TTITLE3=Yesterday's Gone (Tomorrow Is Here)
TTITLE4=Little Star In The Night
TTITLE5=My First Love
TTITLE6=Pot Of Gold
TTITLE7=Wastin' Away
TTITLE8=Sweet Caroline
TTITLE9=A Cowgirls Worship Song
TTITLE10=Before The Chance Is Gone
EXTD=YEAR: 2007
EXTT0=
EXTT1=
EXTT2=
EXTT3=
EXTT4=
EXTT5=
EXTT6=
EXTT7=
EXTT8=
EXTT9=
EXTT10=
PLAYORDER=
